<svg width="800" height="800" viewBox="0 0 800 800" fill="none" xmlns="http://www.w3.org/2000/svg">
  <defs>
    <linearGradient id="bg" x1="100" y1="80" x2="720" y2="700" gradientUnits="userSpaceOnUse">
      <stop stop-color="#0b1728"/>
      <stop offset="1" stop-color="#0f253b"/>
    </linearGradient>
    <linearGradient id="cookieA" x1="180" y1="260" x2="480" y2="520" gradientUnits="userSpaceOnUse">
      <stop stop-color="#F7D08A"/>
      <stop offset="1" stop-color="#E08B2E"/>
    </linearGradient>
    <linearGradient id="cookieB" x1="320" y1="200" x2="620" y2="520" gradientUnits="userSpaceOnUse">
      <stop stop-color="#FCE7B0"/>
      <stop offset="1" stop-color="#E3A13B"/>
    </linearGradient>
    <linearGradient id="slip" x1="310" y1="320" x2="490" y2="480" gradientUnits="userSpaceOnUse">
      <stop stop-color="#ffffff"/>
      <stop offset="1" stop-color="#E7F5FF"/>
    </linearGradient>
  </defs>
  <rect width="800" height="800" rx="48" fill="url(#bg)"/>
  <circle cx="240" cy="200" r="140" fill="#35C7F04D"/>
  <circle cx="620" cy="220" r="120" fill="#FBBF2440"/>
  <circle cx="640" cy="620" r="150" fill="#23BFE640"/>
  <g filter="url(#shadow)">
    <path d="M250 300C200 260 200 200 230 170C270 130 340 150 380 200C430 260 440 360 370 370C320 380 280 340 250 300Z" fill="url(#cookieA)"/>
    <path d="M540 300C590 260 600 200 570 170C530 130 460 150 420 200C370 260 360 360 430 370C480 380 520 340 540 300Z" fill="url(#cookieB)"/>
    <rect x="320" y="320" width="180" height="140" rx="12" transform="rotate(-6 320 320)" fill="url(#slip)" stroke="#E2E8F0" stroke-width="6"/>
    <text x="410" y="380" text-anchor="middle" fill="#0f172a" font-family="Space Grotesk, Arial, sans-serif" font-size="22" font-weight="700">Holiday</text>
    <text x="410" y="410" text-anchor="middle" fill="#0f172a" font-family="Space Grotesk, Arial, sans-serif" font-size="22" font-weight="700">Fortune</text>
    <text x="410" y="440" text-anchor="middle" fill="#0f172a" font-family="Space Grotesk, Arial, sans-serif" font-size="20" font-weight="600">Arbitrum L2</text>
  </g>
  <g transform="translate(300 520)">
    <rect x="0" y="0" width="200" height="80" rx="16" fill="#1B2436" stroke="#36CFFF" stroke-width="4"/>
    <path d="M46 24L30 40L46 56H66L50 40L66 24H46Z" fill="#36CFFF"/>
    <text x="90" y="48" fill="#E0F2FE" font-family="Space Grotesk, Arial, sans-serif" font-size="20" font-weight="700">Arbitrum</text>
  </g>
  <filter id="shadow" x="120" y="80" width="560" height="520" color-interpolation-filters="sRGB">
    <feDropShadow dx="0" dy="22" stdDeviation="28" flood-color="#000000" flood-opacity="0.38"/>
  </filter>
</svg>
